<svg xmlns="http://www.w3.org/2000/svg" width="17" height="18" viewBox="0 0 17 18" fill="none">
  <path fill-rule="evenodd" clip-rule="evenodd" d="M10.8579 8.55L6.2795 3.70223L6.11027 3.52304C5.93216 3.33445 5.93216 3.02869 6.11027 2.84011C6.28837 2.65152 6.57715 2.65152 6.75525 2.84011L6.92449 3.0193L11.5706 7.93867L11.7398 8.11787C11.8507 8.23533 11.8926 8.39825 11.8653 8.55C11.8926 8.70175 11.8507 8.86466 11.7398 8.98213L11.5706 9.16132L6.92449 14.0807L6.75525 14.2599C6.57715 14.4485 6.28837 14.4485 6.11027 14.2599C5.93216 14.0713 5.93216 13.7655 6.11027 13.577L6.2795 13.3978L10.8579 8.55Z" fill="#50B8E4"/>
  <mask id="mask0_4167_3648" style="mask-type:luminance" maskUnits="userSpaceOnUse" x="5" y="2" width="7" height="13">
    <path fill-rule="evenodd" clip-rule="evenodd" d="M10.8579 8.55L6.2795 3.70223L6.11027 3.52304C5.93216 3.33445 5.93216 3.02869 6.11027 2.84011C6.28837 2.65152 6.57715 2.65152 6.75525 2.84011L6.92449 3.0193L11.5706 7.93867L11.7398 8.11787C11.8507 8.23533 11.8926 8.39825 11.8653 8.55C11.8926 8.70175 11.8507 8.86466 11.7398 8.98213L11.5706 9.16132L6.92449 14.0807L6.75525 14.2599C6.57715 14.4485 6.28837 14.4485 6.11027 14.2599C5.93216 14.0713 5.93216 13.7655 6.11027 13.577L6.2795 13.3978L10.8579 8.55Z" fill="white"/>
  </mask>
  <g mask="url(#mask0_4167_3648)">
  </g>
</svg>