<svg xmlns="http://www.w3.org/2000/svg" width="126" height="35" viewBox="0 0 126 35" fill="none">
  <g clip-path="url(#clip0_4611_5738)">
    <path d="M0.611328 19.9179L7.89619 0.541992H11.0829L18.3677 19.9179H14.9535L13.2745 15.3761H5.59078L3.91176 19.9179H0.611328ZM6.58724 12.5419H12.2492L9.43264 4.80797L6.58724 12.5419Z" fill="white"/>
    <path d="M21.2693 19.9179V0.6521H28.4116C30.5744 0.6521 32.2823 1.18831 33.5336 2.26211C34.7849 3.33592 35.4113 4.84426 35.4113 6.78992C35.4113 8.22167 35.0413 9.41386 34.3011 10.3679C33.561 11.3219 32.5558 12.0197 31.2843 12.4598L35.9513 19.9179H32.1383L27.9278 13.1199H26.8463H24.5409V19.9179H21.2693ZM24.5424 10.2843H28.2705C29.4469 10.2843 30.3757 9.98627 31.0597 9.39018C31.7423 8.79408 32.0835 7.9459 32.0835 6.84424C32.0835 5.76208 31.7423 4.94036 31.0597 4.38048C30.3772 3.82059 29.4282 3.54065 28.2143 3.54065H24.5438V10.2843H24.5424Z" fill="white"/>
    <path d="M43.039 19.9179V3.62422H37.8032V0.6521H51.5478V3.62422H46.3409V19.9165H43.039V19.9179Z" fill="white"/>
    <path d="M61.989 19.9179V0.6521H68.0499C70.8579 0.6521 73.133 1.52814 74.8797 3.28021C76.625 5.03228 77.4976 7.32195 77.4976 10.1464V10.3943C77.4976 13.2202 76.625 15.5141 74.8797 17.2745C73.1345 19.0363 70.8579 19.9165 68.0499 19.9165H61.989V19.9179ZM65.2621 17.028H68.1363C69.919 17.028 71.3561 16.4416 72.4476 15.2662C73.5377 14.0921 74.0834 12.4779 74.0834 10.4222V10.1743C74.0834 8.1381 73.5377 6.52391 72.4476 5.33033C71.3561 4.13814 69.919 3.54204 68.1363 3.54204H65.2621V17.028Z" fill="#FF9700"/>
    <path d="M78.5503 19.9179L85.8352 0.541992H89.0218L96.3067 19.9179H92.8925L91.2135 15.3761H83.5312L81.8522 19.9179H78.5503ZM84.5262 12.5419H90.1882L87.3716 4.80797L84.5262 12.5419Z" fill="#FF9700"/>
    <path d="M101.116 19.9179V3.62422H95.8804V0.6521H109.625V3.62422H104.418V19.9165H101.116V19.9179Z" fill="#FF9700"/>
    <path d="M112.754 19.9179V0.6521H125.275V3.54204H116.026V8.7718H124.221V11.6617H116.026V17.028H125.387V19.9179H112.754Z" fill="#FF9700"/>
    <path d="M16.258 27.6086H17.3639L20.7709 33.2061V27.6086H21.5831V34.3802H20.6039L17.0687 28.5752V34.3802H16.2566V27.6086H16.258Z" fill="#FFFAFA"/>
    <path d="M30.3181 27.6086H34.4019V28.2813H31.1706V30.5822H33.7755V31.2548H31.1706V33.7075H34.5776V34.3802H30.3181V27.6086Z" fill="#FFFAFA"/>
    <path d="M44.2715 28.2813H42.2354V27.6086H47.1601V28.2813H45.124V34.3802H44.2715V28.2813Z" fill="#FFFAFA"/>
    <path d="M54.8467 27.6086H55.7179L57.1377 33.0738L58.7821 27.6086H59.3898L61.0343 33.0919L62.4742 27.6086H63.2677L61.4461 34.3802H60.6628L59.0759 29.0292L57.4401 34.3802H56.6668L54.8467 27.6086Z" fill="#FFFAFA"/>
    <path d="M74.3325 34.4651C73.3144 34.4651 72.4821 34.135 71.8356 33.4749C71.189 32.8147 70.8665 32.0027 70.8665 31.0362V30.961C70.8665 29.9819 71.1876 29.1643 71.8312 28.5084C72.4735 27.8524 73.3015 27.5237 74.3138 27.5237C75.3261 27.5237 76.1483 27.851 76.7819 28.5042C77.4155 29.1574 77.7323 29.9707 77.7323 30.9429V31.0181C77.7323 31.9902 77.4155 32.8078 76.7819 33.4707C76.1483 34.1336 75.3318 34.4651 74.3325 34.4651ZM74.3325 33.7827C75.1029 33.7827 75.7149 33.5264 76.1685 33.0153C76.6221 32.5041 76.8496 31.8342 76.8496 31.0069V30.9317C76.8496 30.149 76.6206 29.4958 76.1641 28.9707C75.7077 28.4471 75.0899 28.1852 74.3138 28.1852C73.5175 28.1852 72.8911 28.4401 72.4331 28.9471C71.9767 29.4554 71.7477 30.1225 71.7477 30.9498V31.025C71.7477 31.8328 71.994 32.4944 72.4864 33.0097C72.9803 33.5264 73.5952 33.7827 74.3325 33.7827Z" fill="#FFFAFA"/>
    <path d="M86.1216 27.6086H88.2268C88.9511 27.6086 89.5401 27.7632 89.9937 28.0724C90.4473 28.3816 90.6748 28.8551 90.6748 29.493V29.5306C90.6748 30.0543 90.515 30.4693 90.1953 30.7757C89.8756 31.0821 89.458 31.2827 88.9425 31.3774L91.0866 34.3802H90.1362L88.0511 31.4345H86.974V34.3802H86.1216V27.6086ZM88.2859 30.7813C89.3111 30.7813 89.8238 30.3649 89.8238 29.5306V29.493C89.8238 29.0515 89.6927 28.7368 89.4321 28.5501C89.1715 28.3635 88.7884 28.2702 88.2859 28.2702H86.974V30.7799H88.2859V30.7813Z" fill="#FFFAFA"/>
    <path d="M99.2427 27.6086H100.095V30.8663L103.141 27.5989H104.091L100.978 30.8941L104.248 34.3788H103.22L100.097 31.0738V34.3788H99.2441V27.6086H99.2427Z" fill="#FFFAFA"/>
  </g>
  <defs>
    <clipPath id="clip0_4611_5738">
      <rect width="124.777" height="33.9231" fill="white" transform="translate(0.611328 0.541992)"/>
    </clipPath>
  </defs>
</svg>