<svg xmlns="http://www.w3.org/2000/svg" width="18" height="18" viewBox="0 0 18 18" fill="none">
  <path fill-rule="evenodd" clip-rule="evenodd" d="M0.875 1.5C0.875 1.15482 1.15482 0.875 1.5 0.875H16.5C16.8452 0.875 17.125 1.15482 17.125 1.5V10.6667C17.125 10.8324 17.0592 10.9914 16.9419 11.1086L11.1086 16.9419C10.9914 17.0592 10.8324 17.125 10.6667 17.125H1.5C1.15482 17.125 0.875 16.8452 0.875 16.5V14.8333C0.875 14.4882 1.15482 14.2083 1.5 14.2083C1.84518 14.2083 2.125 14.4882 2.125 14.8333V15.875H10.4078L15.875 10.4078V2.125H2.125V11.5C2.125 11.8452 1.84518 12.125 1.5 12.125C1.15482 12.125 0.875 11.8452 0.875 11.5V1.5Z" fill="#50B8E4"/>
  <path fill-rule="evenodd" clip-rule="evenodd" d="M10.0416 10.6667C10.0416 10.3215 10.3214 10.0417 10.6666 10.0417H16.0833C16.4285 10.0417 16.7083 10.3215 16.7083 10.6667C16.7083 11.0118 16.4285 11.2917 16.0833 11.2917H11.2916V16.0833C11.2916 16.4285 11.0118 16.7083 10.6666 16.7083C10.3214 16.7083 10.0416 16.4285 10.0416 16.0833V10.6667Z" fill="#50B8E4"/>
</svg>