<svg xmlns="http://www.w3.org/2000/svg" width="22" height="8" viewBox="0 0 22 8" fill="none">
  <path d="M21 4.30139C21.2761 4.30139 21.5 4.07753 21.5 3.80139C21.5 3.52525 21.2761 3.30139 21 3.30139V4.30139ZM0.646446 3.44784C0.451185 3.6431 0.451185 3.95968 0.646446 4.15494L3.82843 7.33693C4.02369 7.53219 4.34027 7.53219 4.53553 7.33693C4.7308 7.14166 4.7308 6.82508 4.53553 6.62982L1.70711 3.80139L4.53553 0.972965C4.7308 0.777702 4.7308 0.46112 4.53553 0.265858C4.34027 0.0705955 4.02369 0.0705955 3.82843 0.265858L0.646446 3.44784ZM21 3.30139L1 3.30139V4.30139L21 4.30139V3.30139Z" fill="#6583DD"/>
</svg>